<svg xmlns="http://www.w3.org/2000/svg" xmlns:xlink="http://www.w3.org/1999/xlink" width="2000" zoomAndPan="magnify" viewBox="0 0 1500 1499.999933" height="2000" preserveAspectRatio="xMidYMid meet" version="1.0"><path fill="#ffcc00" d="M 1132.261719 750.464844 C 1132.261719 756.714844 1132.109375 762.960938 1131.804688 769.199219 C 1131.496094 775.441406 1131.039062 781.667969 1130.425781 787.886719 C 1129.8125 794.105469 1129.046875 800.304688 1128.132812 806.484375 C 1127.214844 812.667969 1126.144531 818.820312 1124.925781 824.949219 C 1123.707031 831.078125 1122.339844 837.171875 1120.820312 843.234375 C 1119.304688 849.292969 1117.636719 855.3125 1115.824219 861.292969 C 1114.007812 867.273438 1112.050781 873.203125 1109.945312 879.085938 C 1107.839844 884.96875 1105.59375 890.796875 1103.203125 896.570312 C 1100.808594 902.339844 1098.277344 908.050781 1095.605469 913.699219 C 1092.9375 919.347656 1090.128906 924.929688 1087.183594 930.4375 C 1084.238281 935.949219 1081.15625 941.382812 1077.945312 946.742188 C 1074.734375 952.101562 1071.390625 957.378906 1067.921875 962.574219 C 1064.449219 967.769531 1060.851562 972.875 1057.128906 977.894531 C 1053.410156 982.914062 1049.566406 987.839844 1045.601562 992.667969 C 1041.636719 997.496094 1037.558594 1002.226562 1033.363281 1006.855469 C 1029.167969 1011.488281 1024.859375 1016.011719 1020.441406 1020.429688 C 1016.023438 1024.847656 1011.5 1029.152344 1006.871094 1033.351562 C 1002.238281 1037.546875 997.511719 1041.625 992.679688 1045.589844 C 987.851562 1049.554688 982.925781 1053.398438 977.90625 1057.117188 C 972.886719 1060.839844 967.78125 1064.4375 962.585938 1067.910156 C 957.390625 1071.378906 952.113281 1074.722656 946.753906 1077.933594 C 941.394531 1081.144531 935.960938 1084.226562 930.449219 1087.171875 C 924.941406 1090.117188 919.359375 1092.925781 913.710938 1095.59375 C 908.0625 1098.265625 902.351562 1100.796875 896.582031 1103.1875 C 890.808594 1105.582031 884.980469 1107.828125 879.097656 1109.933594 C 873.214844 1112.039062 867.285156 1113.996094 861.304688 1115.8125 C 855.324219 1117.625 849.304688 1119.292969 843.242188 1120.808594 C 837.183594 1122.328125 831.089844 1123.695312 824.960938 1124.914062 C 818.832031 1126.132812 812.679688 1127.203125 806.5 1128.117188 C 800.316406 1129.035156 794.117188 1129.800781 787.898438 1130.414062 C 781.683594 1131.023438 775.453125 1131.484375 769.210938 1131.792969 C 762.972656 1132.097656 756.726562 1132.25 750.480469 1132.25 C 744.230469 1132.25 737.984375 1132.097656 731.746094 1131.792969 C 725.503906 1131.484375 719.273438 1131.023438 713.058594 1130.414062 C 706.839844 1129.800781 700.640625 1129.035156 694.460938 1128.117188 C 688.277344 1127.203125 682.125 1126.132812 675.996094 1124.914062 C 669.867188 1123.695312 663.773438 1122.328125 657.710938 1120.808594 C 651.652344 1119.292969 645.632812 1117.625 639.652344 1115.8125 C 633.671875 1113.996094 627.742188 1112.039062 621.859375 1109.933594 C 615.976562 1107.828125 610.148438 1105.582031 604.375 1103.1875 C 598.601562 1100.796875 592.894531 1098.265625 587.246094 1095.59375 C 581.597656 1092.925781 576.015625 1090.117188 570.507812 1087.171875 C 564.996094 1084.226562 559.5625 1081.144531 554.203125 1077.933594 C 548.84375 1074.722656 543.566406 1071.378906 538.371094 1067.910156 C 533.175781 1064.4375 528.070312 1060.839844 523.050781 1057.117188 C 518.03125 1053.398438 513.105469 1049.554688 508.277344 1045.589844 C 503.449219 1041.625 498.71875 1037.546875 494.085938 1033.351562 C 489.457031 1029.152344 484.933594 1024.847656 480.515625 1020.429688 C 476.097656 1016.011719 471.792969 1011.488281 467.59375 1006.855469 C 463.398438 1002.226562 459.320312 997.496094 455.355469 992.667969 C 451.390625 987.839844 447.546875 982.914062 443.828125 977.894531 C 440.105469 972.875 436.507812 967.769531 433.035156 962.574219 C 429.566406 957.378906 426.222656 952.101562 423.011719 946.742188 C 419.800781 941.382812 416.71875 935.949219 413.773438 930.4375 C 410.828125 924.929688 408.019531 919.347656 405.347656 913.699219 C 402.675781 908.050781 400.148438 902.339844 397.753906 896.570312 C 395.363281 890.796875 393.117188 884.96875 391.011719 879.085938 C 388.90625 873.203125 386.945312 867.273438 385.132812 861.292969 C 383.320312 855.3125 381.652344 849.292969 380.136719 843.234375 C 378.617188 837.171875 377.25 831.078125 376.03125 824.949219 C 374.8125 818.820312 373.742188 812.667969 372.824219 806.484375 C 371.910156 800.304688 371.144531 794.105469 370.53125 787.886719 C 369.921875 781.667969 369.460938 775.441406 369.152344 769.199219 C 368.847656 762.960938 368.695312 756.714844 368.695312 750.464844 C 368.695312 744.21875 368.847656 737.972656 369.152344 731.734375 C 369.460938 725.492188 369.921875 719.261719 370.53125 713.046875 C 371.144531 706.828125 371.910156 700.628906 372.824219 694.445312 C 373.742188 688.265625 374.8125 682.113281 376.03125 675.984375 C 377.25 669.855469 378.617188 663.761719 380.136719 657.699219 C 381.652344 651.640625 383.320312 645.621094 385.132812 639.640625 C 386.945312 633.660156 388.90625 627.730469 391.011719 621.847656 C 393.117188 615.964844 395.363281 610.136719 397.753906 604.363281 C 400.148438 598.589844 402.675781 592.882812 405.347656 587.234375 C 408.019531 581.585938 410.828125 576.003906 413.773438 570.496094 C 416.71875 564.984375 419.800781 559.550781 423.011719 554.191406 C 426.222656 548.832031 429.566406 543.554688 433.035156 538.359375 C 436.507812 533.164062 440.105469 528.054688 443.824219 523.039062 C 447.546875 518.019531 451.390625 513.09375 455.355469 508.265625 C 459.320312 503.433594 463.398438 498.707031 467.59375 494.074219 C 471.792969 489.445312 476.097656 484.921875 480.515625 480.503906 C 484.933594 476.085938 489.457031 471.777344 494.085938 467.582031 C 498.71875 463.386719 503.449219 459.308594 508.277344 455.34375 C 513.105469 451.378906 518.03125 447.535156 523.050781 443.8125 C 528.070312 440.09375 533.175781 436.496094 538.371094 433.023438 C 543.566406 429.554688 548.84375 426.210938 554.203125 423 C 559.5625 419.785156 564.996094 416.707031 570.507812 413.761719 C 576.015625 410.816406 581.597656 408.007812 587.246094 405.335938 C 592.894531 402.664062 598.601562 400.132812 604.375 397.742188 C 610.148438 395.351562 615.976562 393.105469 621.859375 391 C 627.742188 388.894531 633.671875 386.933594 639.652344 385.121094 C 645.632812 383.308594 651.652344 381.640625 657.710938 380.125 C 663.773438 378.605469 669.867188 377.238281 675.996094 376.019531 C 682.125 374.796875 688.277344 373.730469 694.457031 372.8125 C 700.640625 371.898438 706.839844 371.132812 713.058594 370.519531 C 719.273438 369.90625 725.503906 369.449219 731.746094 369.140625 C 737.984375 368.835938 744.230469 368.683594 750.480469 368.683594 C 756.726562 368.683594 762.972656 368.835938 769.210938 369.140625 C 775.453125 369.449219 781.683594 369.90625 787.898438 370.519531 C 794.117188 371.132812 800.316406 371.898438 806.496094 372.8125 C 812.679688 373.730469 818.832031 374.796875 824.960938 376.019531 C 831.089844 377.238281 837.183594 378.605469 843.242188 380.125 C 849.304688 381.640625 855.324219 383.308594 861.304688 385.121094 C 867.285156 386.933594 873.214844 388.894531 879.097656 391 C 884.980469 393.105469 890.808594 395.351562 896.582031 397.742188 C 902.351562 400.132812 908.0625 402.664062 913.710938 405.335938 C 919.359375 408.007812 924.941406 410.816406 930.449219 413.761719 C 935.960938 416.707031 941.394531 419.785156 946.753906 423 C 952.113281 426.210938 957.390625 429.554688 962.585938 433.023438 C 967.78125 436.496094 972.886719 440.09375 977.90625 443.8125 C 982.925781 447.535156 987.851562 451.378906 992.679688 455.34375 C 997.511719 459.308594 1002.238281 463.386719 1006.871094 467.582031 C 1011.5 471.777344 1016.023438 476.085938 1020.441406 480.503906 C 1024.859375 484.921875 1029.167969 489.445312 1033.363281 494.074219 C 1037.558594 498.707031 1041.636719 503.433594 1045.601562 508.265625 C 1049.566406 513.09375 1053.410156 518.019531 1057.128906 523.039062 C 1060.851562 528.054688 1064.449219 533.164062 1067.921875 538.359375 C 1071.390625 543.554688 1074.734375 548.832031 1077.945312 554.191406 C 1081.15625 559.550781 1084.238281 564.984375 1087.183594 570.496094 C 1090.128906 576.003906 1092.9375 581.585938 1095.609375 587.234375 C 1098.277344 592.882812 1100.808594 598.589844 1103.203125 604.363281 C 1105.59375 610.136719 1107.839844 615.964844 1109.945312 621.847656 C 1112.050781 627.730469 1114.007812 633.660156 1115.824219 639.640625 C 1117.636719 645.621094 1119.304688 651.640625 1120.820312 657.699219 C 1122.339844 663.761719 1123.707031 669.855469 1124.925781 675.984375 C 1126.144531 682.113281 1127.214844 688.265625 1128.132812 694.445312 C 1129.046875 700.628906 1129.8125 706.828125 1130.425781 713.046875 C 1131.035156 719.261719 1131.496094 725.492188 1131.804688 731.734375 C 1132.109375 737.972656 1132.261719 744.21875 1132.261719 750.464844 Z M 1132.261719 750.464844 " fill-opacity="1" fill-rule="nonzero"/><path fill="#ffcc00" d="M 750.472656 0.519531 C 722.777344 0.519531 700.476562 27.277344 700.476562 60.515625 L 700.476562 190.507812 C 700.476562 223.746094 722.777344 250.503906 750.472656 250.503906 C 778.171875 250.503906 800.472656 223.746094 800.472656 190.507812 L 800.472656 60.515625 C 800.472656 27.277344 778.171875 0.519531 750.472656 0.519531 Z M 750.472656 0.519531 " fill-opacity="1" fill-rule="nonzero"/><path fill="#ffcc00" d="M 1280.773438 220.175781 C 1261.1875 200.589844 1226.496094 203.746094 1202.996094 227.246094 L 1111.078125 319.164062 C 1087.574219 342.667969 1084.421875 377.355469 1104.007812 396.941406 C 1123.59375 416.527344 1158.28125 413.375 1181.785156 389.871094 L 1273.703125 297.953125 C 1297.203125 274.449219 1300.359375 239.761719 1280.773438 220.175781 Z M 1280.773438 220.175781 " fill-opacity="1" fill-rule="nonzero"/><path fill="#ffcc00" d="M 1500.429688 750.476562 C 1500.429688 722.777344 1473.671875 700.476562 1440.433594 700.476562 L 1310.441406 700.476562 C 1277.203125 700.476562 1250.445312 722.777344 1250.445312 750.476562 C 1250.445312 778.171875 1277.203125 800.472656 1310.441406 800.472656 L 1440.433594 800.472656 C 1473.671875 800.472656 1500.429688 778.171875 1500.429688 750.476562 Z M 1500.429688 750.476562 " fill-opacity="1" fill-rule="nonzero"/><path fill="#ffcc00" d="M 1280.773438 1280.773438 C 1300.359375 1261.1875 1297.203125 1226.5 1273.703125 1202.996094 L 1181.785156 1111.078125 C 1158.28125 1087.574219 1123.59375 1084.421875 1104.007812 1104.007812 C 1084.421875 1123.59375 1087.574219 1158.28125 1111.078125 1181.785156 L 1202.996094 1273.703125 C 1226.5 1297.203125 1261.1875 1300.359375 1280.773438 1280.773438 Z M 1280.773438 1280.773438 " fill-opacity="1" fill-rule="nonzero"/><path fill="#ffcc00" d="M 750.472656 1500.429688 C 778.171875 1500.429688 800.472656 1473.671875 800.472656 1440.433594 L 800.472656 1310.441406 C 800.472656 1277.203125 778.171875 1250.445312 750.472656 1250.445312 C 722.777344 1250.445312 700.476562 1277.203125 700.476562 1310.441406 L 700.476562 1440.433594 C 700.476562 1473.671875 722.777344 1500.429688 750.472656 1500.429688 Z M 750.472656 1500.429688 " fill-opacity="1" fill-rule="nonzero"/><path fill="#ffcc00" d="M 220.175781 1280.773438 C 239.761719 1300.359375 274.449219 1297.203125 297.953125 1273.703125 L 389.871094 1181.785156 C 413.375 1158.28125 416.527344 1123.59375 396.941406 1104.007812 C 377.355469 1084.421875 342.667969 1087.574219 319.164062 1111.078125 L 227.246094 1202.996094 C 203.746094 1226.496094 200.589844 1261.1875 220.175781 1280.773438 Z M 220.175781 1280.773438 " fill-opacity="1" fill-rule="nonzero"/><path fill="#ffcc00" d="M 0.519531 750.472656 C 0.519531 778.171875 27.277344 800.472656 60.515625 800.472656 L 190.507812 800.472656 C 223.746094 800.472656 250.503906 778.171875 250.503906 750.472656 C 250.503906 722.777344 223.746094 700.476562 190.507812 700.476562 L 60.515625 700.476562 C 27.277344 700.476562 0.519531 722.777344 0.519531 750.472656 Z M 0.519531 750.472656 " fill-opacity="1" fill-rule="nonzero"/><path fill="#ffcc00" d="M 220.175781 220.175781 C 200.589844 239.761719 203.746094 274.449219 227.246094 297.953125 L 319.164062 389.871094 C 342.667969 413.375 377.355469 416.527344 396.941406 396.941406 C 416.527344 377.355469 413.375 342.667969 389.871094 319.164062 L 297.953125 227.246094 C 274.453125 203.746094 239.761719 200.589844 220.175781 220.175781 Z M 220.175781 220.175781 " fill-opacity="1" fill-rule="nonzero"/></svg>